# xmcd CD database file
#
# Track frame offsets:
#	150
#	28596
#	56708
#	82358
#	104150
#	131400
#	153023
#	177642
#
# Disc length: 2721 seconds
#
# Revision: 0
# Processed by: cddbd v1.5.2PL0 Copyright (c) Steve Scherf et al.
# Submitted via: CDex 1.70beta2
#
DISCID=6e0a9f08
DTITLE=La Contrabanda - Romántica Dura
DYEAR=2006
DGENRE=Salsa
TTITLE0=Mi Niña
TTITLE1=Let's Go Crazy
TTITLE2=El Fin De Nuestro Amor
TTITLE3=Chanson Pour L'auvergnat
TTITLE4=No Imaginas
TTITLE5=Mi Bomba
TTITLE6=Comme Ils Disent
TTITLE7=Tan Lejos Tan Cerca
EXTD=YEAR: 2006
EXTT0=
EXTT1=
EXTT2=
EXTT3=
EXTT4=
EXTT5=
EXTT6=
EXTT7=
PLAYORDER=
